<svg width="918" height="257" viewBox="0 0 918 257" fill="none" xmlns="http://www.w3.org/2000/svg">
<rect x="2.5" y="2.5" width="913" height="252" fill="white"/>
<rect width="439" height="217" transform="translate(20 20)" fill="#FF914D"/>
<path d="M136.13 96.5L149.255 141.625H149.755L162.88 96.5H182.505L161.38 160.5H137.63L116.505 96.5H136.13Z" fill="white"/>
<path d="M219.244 96.5V160.5H201.869V96.5H219.244Z" fill="white"/>
<path d="M240.678 160.5V96.5H286.803V110.5H258.053V121.5H284.428V135.5H258.053V146.5H286.678V160.5H240.678Z" fill="white"/>
<path d="M306.871 110.5V96.5H362.496V110.5H343.246V160.5H326.121V110.5H306.871Z" fill="white"/>
<path d="M488.625 161V97H533.625V111H506V122H530.875V136H506V161H488.625Z" fill="#FF914D"/>
<path d="M584.931 97H602.306V138C602.306 142.875 601.139 147.094 598.806 150.656C596.493 154.198 593.264 156.938 589.118 158.875C584.972 160.792 580.16 161.75 574.681 161.75C569.16 161.75 564.326 160.792 560.181 158.875C556.035 156.938 552.806 154.198 550.493 150.656C548.201 147.094 547.056 142.875 547.056 138V97H564.431V136.5C564.431 138.479 564.868 140.25 565.743 141.812C566.618 143.354 567.826 144.562 569.368 145.438C570.931 146.312 572.701 146.75 574.681 146.75C576.681 146.75 578.451 146.312 579.993 145.438C581.535 144.562 582.743 143.354 583.618 141.812C584.493 140.25 584.931 138.479 584.931 136.5V97Z" fill="#FF914D"/>
<path d="M615.853 111V97H671.478V111H652.228V161H635.103V111H615.853Z" fill="#FF914D"/>
<path d="M722.932 97H740.307V138C740.307 142.875 739.141 147.094 736.807 150.656C734.495 154.198 731.266 156.938 727.12 158.875C722.974 160.792 718.162 161.75 712.682 161.75C707.162 161.75 702.328 160.792 698.182 158.875C694.037 156.938 690.807 154.198 688.495 150.656C686.203 147.094 685.057 142.875 685.057 138V97H702.432V136.5C702.432 138.479 702.87 140.25 703.745 141.812C704.62 143.354 705.828 144.562 707.37 145.438C708.932 146.312 710.703 146.75 712.682 146.75C714.682 146.75 716.453 146.312 717.995 145.438C719.537 144.562 720.745 143.354 721.62 141.812C722.495 140.25 722.932 138.479 722.932 136.5V97Z" fill="#FF914D"/>
<path d="M755.605 161V97H783.23C787.98 97 792.137 97.8646 795.699 99.5938C799.262 101.323 802.032 103.813 804.012 107.063C805.991 110.313 806.98 114.208 806.98 118.75C806.98 123.333 805.959 127.198 803.918 130.344C801.897 133.49 799.053 135.865 795.387 137.469C791.741 139.073 787.48 139.875 782.605 139.875H766.105V126.375H779.105C781.147 126.375 782.887 126.125 784.324 125.625C785.782 125.104 786.897 124.281 787.668 123.156C788.459 122.031 788.855 120.563 788.855 118.75C788.855 116.917 788.459 115.427 787.668 114.281C786.897 113.115 785.782 112.26 784.324 111.719C782.887 111.156 781.147 110.875 779.105 110.875H772.98V161H755.605ZM793.105 131.625L809.105 161H790.23L774.605 131.625H793.105Z" fill="#FF914D"/>
<path d="M821.427 161V97H867.552V111H838.802V122H865.177V136H838.802V147H867.427V161H821.427Z" fill="#FF914D"/>
<rect x="2.5" y="2.5" width="913" height="252" stroke="#FF914D" stroke-width="5"/>
</svg>
